<?xml version="1.0" encoding="UTF-8" standalone="no"?>
<svg
   xmlns:dc="http://purl.org/dc/elements/1.1/"
   xmlns:cc="http://creativecommons.org/ns#"
   xmlns:rdf="http://www.w3.org/1999/02/22-rdf-syntax-ns#"
   xmlns:svg="http://www.w3.org/2000/svg"
   xmlns="http://www.w3.org/2000/svg"
   xmlns:sodipodi="http://sodipodi.sourceforge.net/DTD/sodipodi-0.dtd"
   xmlns:inkscape="http://www.inkscape.org/namespaces/inkscape"
   version="1.1"
   viewBox="0 0 897.55121 289.96063"
   stroke-miterlimit="10"
   id="svg91"
   sodipodi:docname="annotation_easy_case.svg"
   width="897.55121"
   height="289.96063"
   style="fill:none;stroke:none;stroke-linecap:square;stroke-miterlimit:10"
   inkscape:version="0.92.3 (2405546, 2018-03-11)">
  <metadata
     id="metadata97">
    <rdf:RDF>
      <cc:Work
         rdf:about="">
        <dc:format>image/svg+xml</dc:format>
        <dc:type
           rdf:resource="http://purl.org/dc/dcmitype/StillImage" />
        <dc:title></dc:title>
      </cc:Work>
    </rdf:RDF>
  </metadata>
  <defs
     id="defs95" />
  <sodipodi:namedview
     pagecolor="#ffffff"
     bordercolor="#666666"
     borderopacity="1"
     objecttolerance="10"
     gridtolerance="10"
     guidetolerance="10"
     inkscape:pageopacity="0"
     inkscape:pageshadow="2"
     inkscape:window-width="1853"
     inkscape:window-height="1025"
     id="namedview93"
     showgrid="false"
     fit-margin-top="0"
     fit-margin-left="0"
     fit-margin-right="0"
     fit-margin-bottom="0"
     inkscape:zoom="0.7125"
     inkscape:cx="798.84069"
     inkscape:cy="142.41062"
     inkscape:window-x="67"
     inkscape:window-y="27"
     inkscape:window-maximized="1"
     inkscape:current-layer="g89" />
  <clipPath
     id="g552b2348e4_0_0.0">
    <path
       d="M 0,0 H 960 V 540 H 0 Z"
       id="path2"
       inkscape:connector-curvature="0"
       style="clip-rule:nonzero" />
  </clipPath>
  <g
     clip-path="url(#g552b2348e4_0_0.0)"
     id="g89"
     transform="translate(-31.22441,-125.01968)">
    <path
       d="m 32.72441,270 v 0 c 0,-26.414 63.49801,-47.82677 141.82677,-47.82677 v 0 c 78.32877,0 141.82678,21.41277 141.82678,47.82677 v 0 c 0,26.414 -63.49802,47.82678 -141.82678,47.82678 v 0 C 96.22242,317.82678 32.72441,296.414 32.72441,270 Z"
       id="path11"
       inkscape:connector-curvature="0"
       style="fill:#000000;fill-opacity:0;fill-rule:evenodd" />
    <path
       d="m 32.72441,270 v 0 c 0,-26.414 63.49801,-47.82677 141.82677,-47.82677 v 0 c 78.32877,0 141.82678,21.41277 141.82678,47.82677 v 0 c 0,26.414 -63.49802,47.82678 -141.82678,47.82678 v 0 C 96.22242,317.82678 32.72441,296.414 32.72441,270 Z"
       id="path13"
       inkscape:connector-curvature="0"
       style="fill-rule:evenodd;stroke:#000000;stroke-width:3;stroke-linecap:butt;stroke-linejoin:round" />
    <path
       d="m 90.03556,284.4 11,-28.64063 h 4.07813 L 116.83244,284.4 h -4.3125 l -3.34375,-8.67188 H 97.207435 L 94.06681,284.4 Z m 8.265625,-11.76563 h 9.703125 l -2.98437,-7.92187 q -1.35938,-3.60938 -2.03125,-5.9375 -0.54688,2.75 -1.54688,5.46875 z m 41.992175,1.71875 3.79688,0.96875 q -1.20313,4.65625 -4.29688,7.10938 -3.09375,2.45312 -7.5625,2.45312 -4.62499,0 -7.53124,-1.875 -2.90625,-1.89062 -4.42187,-5.46875 -1.5,-3.57812 -1.5,-7.67187 0,-4.46875 1.70312,-7.79688 1.70313,-3.34375 4.85938,-5.0625 3.15624,-1.73437 6.95311,-1.73437 4.29688,0 7.21875,2.1875 2.9375,2.1875 4.07813,6.15625 l -3.71875,0.875 q -1,-3.125 -2.90625,-4.54688 -1.89063,-1.42187 -4.75,-1.42187 -3.3125,0 -5.53124,1.57812 -2.20313,1.57813 -3.10938,4.25 -0.89062,2.65625 -0.89062,5.5 0,3.64063 1.0625,6.375 1.0625,2.71875 3.29687,4.07813 2.24999,1.34375 4.87499,1.34375 3.1875,0 5.39063,-1.82813 2.20312,-1.84375 2.98437,-5.46875 z M 156.03946,284.4 v -25.25 h -9.4375 v -3.39063 h 22.70312 V 259.15 h -9.48437 v 25.25 z m 30.54297,-11.23438 v -3.35937 l 12.125,-0.0156 v 10.625 q -2.78125,2.21875 -5.75,3.34375 -2.96875,1.125 -6.09375,1.125 -4.21875,0 -7.67188,-1.79687 -3.45312,-1.8125 -5.21875,-5.23438 -1.75,-3.42187 -1.75,-7.64062 0,-4.17188 1.75,-7.79688 1.75,-3.625 5.03125,-5.375 3.28125,-1.76562 7.5625,-1.76562 3.10938,0 5.60938,1.01562 2.51562,1 3.9375,2.79688 1.42187,1.79687 2.17187,4.6875 l -3.42187,0.9375 q -0.64063,-2.1875 -1.60938,-3.4375 -0.95312,-1.25 -2.73437,-2 -1.76563,-0.75 -3.9375,-0.75 -2.59375,0 -4.5,0.79687 -1.89063,0.78125 -3.04688,2.07813 -1.15625,1.28125 -1.8125,2.82812 -1.09375,2.65625 -1.09375,5.75 0,3.82813 1.3125,6.40625 1.32813,2.57813 3.84375,3.82813 2.53125,1.25 5.35938,1.25 2.45312,0 4.79687,-0.9375 2.34375,-0.95313 3.5625,-2.03125 v -5.32813 z"
       id="path15"
       inkscape:connector-curvature="0"
       style="fill:#000000;fill-rule:nonzero" />
    <path
       d="m 217.69572,273.16562 v -3.35938 l 12.125,-0.0156 v 10.625 q -2.78125,2.21875 -5.75,3.34375 -2.96875,1.125 -6.09375,1.125 -4.21875,0 -7.67188,-1.79688 -3.45312,-1.8125 -5.21875,-5.23437 -1.75,-3.42188 -1.75,-7.64063 0,-4.17187 1.75,-7.79687 1.75,-3.625 5.03125,-5.375 3.28125,-1.76563 7.5625,-1.76563 3.10938,0 5.60938,1.01563 2.51562,1 3.9375,2.79687 1.42187,1.79688 2.17187,4.6875 l -3.42187,0.9375 q -0.64063,-2.1875 -1.60938,-3.4375 -0.95312,-1.25 -2.73437,-2 -1.76563,-0.75 -3.9375,-0.75 -2.59375,0 -4.5,0.79688 -1.89063,0.78125 -3.04688,2.07812 -1.15625,1.28125 -1.8125,2.82813 -1.09375,2.65625 -1.09375,5.75 0,3.82812 1.3125,6.40625 1.32813,2.57812 3.84375,3.82812 2.53125,1.25 5.35938,1.25 2.45312,0 4.79687,-0.9375 2.34375,-0.95312 3.5625,-2.03125 v -5.32812 z m 14.56641,11.23437 11,-28.64062 h 4.07812 l 11.71874,28.64062 h -4.31249 l -3.34375,-8.67187 H 239.434 l -3.14062,8.67187 z m 8.26562,-11.76562 h 9.70313 l -2.98438,-7.92188 q -1.35937,-3.60937 -2.03125,-5.9375 -0.54687,2.75 -1.54687,5.46875 z"
       id="path17"
       inkscape:connector-curvature="0"
       style="fill:#ff0000;fill-rule:nonzero" />
    <path
       d="m 643.6221,270 v 0 c 0,-26.414 63.49799,-47.82677 141.82672,-47.82677 v 0 c 78.3288,0 141.82678,21.41277 141.82678,47.82677 v 0 c 0,26.414 -63.49799,47.82678 -141.82678,47.82678 v 0 C 707.12009,317.82678 643.6221,296.414 643.6221,270 Z"
       id="path19"
       inkscape:connector-curvature="0"
       style="fill:#000000;fill-opacity:0;fill-rule:evenodd" />
    <path
       d="m 643.6221,270 v 0 c 0,-26.414 63.49799,-47.82677 141.82672,-47.82677 v 0 c 78.3288,0 141.82678,21.41277 141.82678,47.82677 v 0 c 0,26.414 -63.49799,47.82678 -141.82678,47.82678 v 0 C 707.12009,317.82678 643.6221,296.414 643.6221,270 Z"
       id="path21"
       inkscape:connector-curvature="0"
       style="fill-rule:evenodd;stroke:#000000;stroke-width:3;stroke-linecap:butt;stroke-linejoin:round" />
    <path
       d="m 714.7203,284.4 v -25.25 h -9.4375 v -3.39063 h 22.70312 V 259.15 h -9.48437 v 25.25 z m 24.43359,0 v -25.25 h -9.4375 v -3.39063 h 22.70313 V 259.15 h -9.48438 v 25.25 z"
       id="path23"
       inkscape:connector-curvature="0"
       style="fill:#ff0000;fill-rule:nonzero" />
    <path
       d="m 753.14996,284.4 11,-28.64063 h 4.07812 L 779.94683,284.4 h -4.3125 l -3.34375,-8.67188 H 760.32183 L 757.18121,284.4 Z m 8.26562,-11.76563 h 9.70313 l -2.98438,-7.92187 q -1.35937,-3.60938 -2.03125,-5.9375 -0.54687,2.75 -1.54687,5.46875 z M 790.26715,284.4 v -25.25 h -9.4375 v -3.39063 h 22.70312 V 259.15 h -9.48437 v 25.25 z m 30.54303,-11.23438 v -3.35937 l 12.125,-0.0156 v 10.625 q -2.78125,2.21875 -5.75,3.34375 -2.96875,1.125 -6.09375,1.125 -4.21875,0 -7.67188,-1.79687 -3.45318,-1.8125 -5.21881,-5.23438 -1.75,-3.42187 -1.75,-7.64062 0,-4.17188 1.75,-7.79688 1.75,-3.625 5.03131,-5.375 3.28125,-1.76562 7.5625,-1.76562 3.10938,0 5.60938,1.01562 2.51562,1 3.9375,2.79688 1.42187,1.79687 2.17187,4.6875 l -3.42187,0.9375 q -0.64063,-2.1875 -1.60938,-3.4375 -0.95312,-1.25 -2.73437,-2 -1.76563,-0.75 -3.9375,-0.75 -2.59375,0 -4.5,0.79687 -1.89063,0.78125 -3.04688,2.07813 -1.15631,1.28125 -1.81256,2.82812 -1.09375,2.65625 -1.09375,5.75 0,3.82813 1.3125,6.40625 1.32813,2.57813 3.84381,3.82813 2.53125,1.25 5.35938,1.25 2.45312,0 4.79687,-0.9375 2.34375,-0.95313 3.5625,-2.03125 v -5.32813 z m 31.11328,0 v -3.35937 l 12.125,-0.0156 v 10.625 q -2.78125,2.21875 -5.75,3.34375 -2.96875,1.125 -6.09375,1.125 -4.21875,0 -7.67188,-1.79687 -3.45312,-1.8125 -5.21875,-5.23438 -1.75,-3.42187 -1.75,-7.64062 0,-4.17188 1.75,-7.79688 1.75,-3.625 5.03125,-5.375 3.28125,-1.76562 7.5625,-1.76562 3.10938,0 5.60938,1.01562 2.51562,1 3.9375,2.79688 1.42187,1.79687 2.17187,4.6875 l -3.42187,0.9375 q -0.64063,-2.1875 -1.60938,-3.4375 -0.95312,-1.25 -2.73437,-2 -1.76563,-0.75 -3.9375,-0.75 -2.59375,0 -4.5,0.79687 -1.89063,0.78125 -3.04688,2.07813 -1.15625,1.28125 -1.8125,2.82812 -1.09375,2.65625 -1.09375,5.75 0,3.82813 1.3125,6.40625 1.32813,2.57813 3.84375,3.82813 2.53125,1.25 5.35938,1.25 2.45312,0 4.79687,-0.9375 2.34375,-0.95313 3.5625,-2.03125 v -5.32813 z"
       id="path25"
       inkscape:connector-curvature="0"
       style="fill:#000000;fill-rule:nonzero" />
    <path
       d="m 419.7638,270 v 0 c 0,-26.414 26.96866,-47.82677 60.23621,-47.82677 v 0 c 33.26751,0 60.2362,21.41277 60.2362,47.82677 v 0 c 0,26.414 -26.96869,47.82678 -60.2362,47.82678 v 0 C 446.73246,317.82678 419.7638,296.414 419.7638,270 Z"
       id="path27"
       inkscape:connector-curvature="0"
       style="fill:#000000;fill-opacity:0;fill-rule:evenodd" />
    <path
       d="m 419.7638,270 v 0 c 0,-26.414 26.96866,-47.82677 60.23621,-47.82677 v 0 c 33.26751,0 60.2362,21.41277 60.2362,47.82677 v 0 c 0,26.414 -26.96869,47.82678 -60.2362,47.82678 v 0 C 446.73246,317.82678 419.7638,296.414 419.7638,270 Z"
       id="path29"
       inkscape:connector-curvature="0"
       style="fill-rule:evenodd;stroke:#ff0000;stroke-width:3;stroke-linecap:butt;stroke-linejoin:round" />
    <path
       d="m 475.73242,274.35312 3.79687,0.96875 q -1.20312,4.65625 -4.29687,7.10937 -3.09375,2.45313 -7.5625,2.45313 -4.625,0 -7.53125,-1.875 -2.90625,-1.89063 -4.42188,-5.46875 -1.5,-3.57813 -1.5,-7.67188 0,-4.46875 1.70313,-7.79687 1.70312,-3.34375 4.85937,-5.0625 3.15625,-1.73438 6.95313,-1.73438 4.29687,0 7.21875,2.1875 2.9375,2.1875 4.07812,6.15625 l -3.71875,0.875 q -1,-3.125 -2.90625,-4.54687 -1.89062,-1.42188 -4.75,-1.42188 -3.3125,0 -5.53125,1.57813 -2.20312,1.57812 -3.10937,4.25 -0.89063,2.65625 -0.89063,5.5 0,3.64062 1.0625,6.375 1.0625,2.71875 3.29688,4.07812 2.25,1.34375 4.875,1.34375 3.1875,0 5.39062,-1.82812 2.20313,-1.84375 2.98438,-5.46875 z m 5.30859,10.04687 11,-28.64062 h 4.07813 l 11.71875,28.64062 h -4.3125 l -3.34375,-8.67187 h -11.96875 l -3.14063,8.67187 z m 8.26563,-11.76562 h 9.70312 l -2.98437,-7.92188 q -1.35938,-3.60937 -2.03125,-5.9375 -0.54688,2.75 -1.54688,5.46875 z"
       id="path31"
       inkscape:connector-curvature="0"
       style="fill:#ff0000;fill-rule:nonzero" />
    <path
       d="m 328.7454,174.34645 v 0 c 0,-26.41399 18.64896,-47.82677 41.65356,-47.82677 v 0 c 11.04722,0 21.64194,5.03888 29.4535,14.00814 7.81155,8.96927 12.20004,21.13418 12.20004,33.81863 v 0 c 0,26.414 -18.64893,47.82678 -41.65354,47.82678 v 0 c -23.0046,0 -41.65356,-21.41278 -41.65356,-47.82678 z"
       id="path33"
       inkscape:connector-curvature="0"
       style="fill:#000000;fill-opacity:0;fill-rule:evenodd" />
    <path
       d="m 328.7454,174.34645 v 0 c 0,-26.41399 18.64896,-47.82677 41.65356,-47.82677 v 0 c 11.04722,0 21.64194,5.03888 29.4535,14.00814 7.81155,8.96927 12.20004,21.13418 12.20004,33.81863 v 0 c 0,26.414 -18.64893,47.82678 -41.65354,47.82678 v 0 c -23.0046,0 -41.65356,-21.41278 -41.65356,-47.82678 z"
       id="path35"
       inkscape:connector-curvature="0"
       style="fill-rule:evenodd;stroke:#ff0000;stroke-width:3;stroke-linecap:butt;stroke-linejoin:round" />
    <path
       d="m 356.9966,188.74646 11,-28.64062 h 4.07812 l 11.71875,28.64062 h -4.3125 l -3.34375,-8.67187 h -11.96875 l -3.14062,8.67187 z m 8.26562,-11.76562 h 9.70313 l -2.98438,-7.92188 q -1.35937,-3.60937 -2.03125,-5.9375 -0.54687,2.75 -1.54687,5.46875 z"
       id="path37"
       inkscape:connector-curvature="0"
       style="fill:#ff0000;fill-rule:nonzero" />
    <path
       d="m 328.7454,365.65353 v 0 c 0,-26.414 18.64896,-47.82675 41.65356,-47.82675 v 0 c 11.04722,0 21.64194,5.03888 29.4535,14.00812 7.81155,8.96927 12.20004,21.13418 12.20004,33.81863 v 0 c 0,26.414 -18.64893,47.82678 -41.65354,47.82678 v 0 c -23.0046,0 -41.65356,-21.41278 -41.65356,-47.82678 z"
       id="path39"
       inkscape:connector-curvature="0"
       style="fill:#000000;fill-opacity:0;fill-rule:evenodd" />
    <path
       d="m 328.7454,365.65353 v 0 c 0,-26.414 18.64896,-47.82675 41.65356,-47.82675 v 0 c 11.04722,0 21.64194,5.03888 29.4535,14.00812 7.81155,8.96927 12.20004,21.13418 12.20004,33.81863 v 0 c 0,26.414 -18.64893,47.82678 -41.65354,47.82678 v 0 c -23.0046,0 -41.65356,-21.41278 -41.65356,-47.82678 z"
       id="path41"
       inkscape:connector-curvature="0"
       style="fill-rule:evenodd;stroke:#ff0000;stroke-width:3;stroke-linecap:butt;stroke-linejoin:round" />
    <path
       d="m 368.55716,380.05353 v -25.25 h -9.4375 v -3.39062 h 22.70312 v 3.39062 h -9.48437 v 25.25 z"
       id="path43"
       inkscape:connector-curvature="0"
       style="fill:#ff0000;fill-rule:nonzero" />
    <path
       d="m 550.4042,174.34645 v 0 c 0,-26.41399 18.64893,-47.82677 41.65356,-47.82677 v 0 c 11.04718,0 21.64197,5.03888 29.45349,14.00814 7.81159,8.96927 12.20008,21.13418 12.20008,33.81863 v 0 c 0,26.414 -18.64893,47.82678 -41.65357,47.82678 v 0 c -23.00464,0 -41.65356,-21.41278 -41.65356,-47.82678 z"
       id="path45"
       inkscape:connector-curvature="0"
       style="fill:#000000;fill-opacity:0;fill-rule:evenodd" />
    <path
       d="m 550.4042,174.34645 v 0 c 0,-26.41399 18.64893,-47.82677 41.65356,-47.82677 v 0 c 11.04718,0 21.64197,5.03888 29.45349,14.00814 7.81159,8.96927 12.20008,21.13418 12.20008,33.81863 v 0 c 0,26.414 -18.64893,47.82678 -41.65357,47.82678 v 0 c -23.00464,0 -41.65356,-21.41278 -41.65356,-47.82678 z"
       id="path47"
       inkscape:connector-curvature="0"
       style="fill-rule:evenodd;stroke:#ff0000;stroke-width:3;stroke-linecap:butt;stroke-linejoin:round" />
    <path
       d="m 592.9855,177.51208 v -3.35938 l 12.125,-0.0156 v 10.625 q -2.78125,2.21875 -5.75,3.34375 -2.96875,1.125 -6.09375,1.125 -4.21875,0 -7.67188,-1.79688 -3.45312,-1.8125 -5.21875,-5.23437 -1.75,-3.42188 -1.75,-7.64063 0,-4.17187 1.75,-7.79687 1.75,-3.625 5.03125,-5.375 3.28125,-1.76563 7.5625,-1.76563 3.10938,0 5.60938,1.01563 2.51562,1 3.9375,2.79687 1.42187,1.79688 2.17187,4.6875 l -3.42187,0.9375 q -0.64063,-2.1875 -1.60938,-3.4375 -0.95312,-1.25 -2.73437,-2 -1.76563,-0.75 -3.9375,-0.75 -2.59375,0 -4.5,0.79688 -1.89063,0.78125 -3.04688,2.07812 -1.15625,1.28125 -1.8125,2.82813 -1.09375,2.65625 -1.09375,5.75 0,3.82812 1.3125,6.40625 1.32813,2.57812 3.84375,3.82812 2.53125,1.25 5.35938,1.25 2.45312,0 4.79687,-0.9375 2.34375,-0.95312 3.5625,-2.03125 v -5.32812 z"
       id="path49"
       inkscape:connector-curvature="0"
       style="fill:#ff0000;fill-rule:nonzero" />
    <path
       d="m 550.4042,365.65353 v 0 c 0,-26.414 18.64893,-47.82675 41.65356,-47.82675 v 0 c 11.04718,0 21.64197,5.03888 29.45349,14.00812 7.81159,8.96927 12.20008,21.13418 12.20008,33.81863 v 0 c 0,26.414 -18.64893,47.82678 -41.65357,47.82678 v 0 c -23.00464,0 -41.65356,-21.41278 -41.65356,-47.82678 z"
       id="path51"
       inkscape:connector-curvature="0"
       style="fill:#000000;fill-opacity:0;fill-rule:evenodd" />
    <path
       d="m 550.4042,365.65353 v 0 c 0,-26.414 18.64893,-47.82675 41.65356,-47.82675 v 0 c 11.04718,0 21.64197,5.03888 29.45349,14.00812 7.81159,8.96927 12.20008,21.13418 12.20008,33.81863 v 0 c 0,26.414 -18.64893,47.82678 -41.65357,47.82678 v 0 c -23.00464,0 -41.65356,-21.41278 -41.65356,-47.82678 z"
       id="path53"
       inkscape:connector-curvature="0"
       style="fill-rule:evenodd;stroke:#ff0000;stroke-width:3;stroke-linecap:butt;stroke-linejoin:round" />
    <path
       d="m 590.21594,380.05353 v -25.25 h -9.4375 v -3.39062 h 22.70313 v 3.39062 h -9.48438 v 25.25 z"
       id="path55"
       inkscape:connector-curvature="0"
       style="fill:#ff0000;fill-rule:nonzero" />
    <path
       d="m 274.8352,236.1966 66.11023,-28.03151"
       id="path57"
       inkscape:connector-curvature="0"
       style="fill:#000000;fill-opacity:0;fill-rule:evenodd" />
    <path
       d="m 274.8352,236.1966 66.11023,-28.03151"
       id="path59"
       inkscape:connector-curvature="0"
       style="fill-rule:evenodd;stroke:#ff0000;stroke-width:3;stroke-linecap:butt;stroke-linejoin:round" />
    <path
       d="m 274.83786,303.81863 66.11023,28.03149"
       id="path61"
       inkscape:connector-curvature="0"
       style="fill:#000000;fill-opacity:0;fill-rule:evenodd" />
    <path
       d="m 274.83786,303.81863 66.11023,28.03149"
       id="path63"
       inkscape:connector-curvature="0"
       style="fill-rule:evenodd;stroke:#ff0000;stroke-width:3;stroke-linecap:butt;stroke-linejoin:round" />
    <path
       d="m 399.85245,208.16508 37.5433,28.03151"
       id="path65"
       inkscape:connector-curvature="0"
       style="fill:#000000;fill-opacity:0;fill-rule:evenodd" />
    <path
       d="m 399.85245,208.16508 37.5433,28.03151"
       id="path67"
       inkscape:connector-curvature="0"
       style="fill-rule:evenodd;stroke:#ff0000;stroke-width:3;stroke-linecap:butt;stroke-linejoin:round" />
    <path
       d="m 399.85245,331.8349 37.5433,-28.03149"
       id="path69"
       inkscape:connector-curvature="0"
       style="fill:#000000;fill-opacity:0;fill-rule:evenodd" />
    <path
       d="m 399.85245,331.8349 37.5433,-28.03149"
       id="path71"
       inkscape:connector-curvature="0"
       style="fill-rule:evenodd;stroke:#ff0000;stroke-width:3;stroke-linecap:butt;stroke-linejoin:round" />
    <path
       d="m 522.60425,236.1966 40,-28.03151"
       id="path73"
       inkscape:connector-curvature="0"
       style="fill:#000000;fill-opacity:0;fill-rule:evenodd" />
    <path
       d="m 522.60425,236.1966 40,-28.03151"
       id="path75"
       inkscape:connector-curvature="0"
       style="fill-rule:evenodd;stroke:#ff0000;stroke-width:3;stroke-linecap:butt;stroke-linejoin:round" />
    <path
       d="m 522.59344,303.81863 40,28.03149"
       id="path77"
       inkscape:connector-curvature="0"
       style="fill:#000000;fill-opacity:0;fill-rule:evenodd" />
    <path
       d="m 522.59344,303.81863 40,28.03149"
       id="path79"
       inkscape:connector-curvature="0"
       style="fill-rule:evenodd;stroke:#ff0000;stroke-width:3;stroke-linecap:butt;stroke-linejoin:round" />
    <path
       d="m 621.5112,208.16508 63.65356,28.03151"
       id="path81"
       inkscape:connector-curvature="0"
       style="fill:#000000;fill-opacity:0;fill-rule:evenodd" />
    <path
       d="m 621.5112,208.16508 63.65356,28.03151"
       id="path83"
       inkscape:connector-curvature="0"
       style="fill-rule:evenodd;stroke:#ff0000;stroke-width:3;stroke-linecap:butt;stroke-linejoin:round" />
    <path
       d="m 621.5112,331.8349 63.65356,-28.03149"
       id="path85"
       inkscape:connector-curvature="0"
       style="fill:#000000;fill-opacity:0;fill-rule:evenodd" />
    <path
       d="m 621.5112,331.8349 63.65356,-28.03149"
       id="path87"
       inkscape:connector-curvature="0"
       style="fill-rule:evenodd;stroke:#ff0000;stroke-width:3;stroke-linecap:butt;stroke-linejoin:round" />
  </g>
</svg>
